<svg version="1.2" xmlns="http://www.w3.org/2000/svg" viewBox="0 0 113 72" width="113" height="72"><style>.a{fill:#d5d6db}.b{fill:#029bc5}.c{fill:#e1e6e9}.d{fill:#3a556a}</style><path class="a" d="m72.2 37.8c-1.4 0.4-2.7 0.9-3.9 1.7-3.2 2-5 4.9-4.1 6.4 0.9 1.5 4.2 1.1 7.3-0.9 1.2-0.7 2.3-1.7 3.2-2.8 0.4-0.6 0.5-1.3 0.2-1.8l-1.2-1.9c-0.3-0.5-0.9-0.8-1.5-0.7z"/><path class="a" d="m64.3 10.9c-1 0.2-2 0.6-2.8 1.2-2.3 1.4-3.6 3.5-3 4.6 0.7 1.1 3 0.8 5.3-0.7 0.9-0.5 1.7-1.2 2.3-2 0.3-0.4 0.4-0.9 0.1-1.3l-0.8-1.4c-0.2-0.4-0.6-0.5-1.1-0.4z"/><path class="b" d="m51.5 12q-0.4 0-0.7 0.1l-5.3 3.5c-0.5 0.2-0.7 0.8-0.4 1.2q0 0.1 0.2 0.2l13.2 9.1 17.8-11.4z"/><path class="c" d="m107.8 10.7l-48.5 30.6-28.7 11.4-14.6 2.9-1.6-2.7 80.8-50c2.5-1.5 5.1-2.4 7.8-2.7q1.8-0.1 3.5 0.2 1.5 0.2 2.8 0.8c1 0.5 2.8 0.6 3.4 1.5 0 0 1.4 4.4-4.9 8z"/><path class="b" d="m60 37.2l-21 33.5c-0.3 0.5-0.1 1 0.3 1.2 0.3 0.1 0.6 0 0.9-0.2l5.4-3.4c1-0.6 1.9-1.4 2.6-2.4l40.8-47.9z"/><path class="b" d="m7 36.1c-0.4-0.1-0.8-0.1-1.1 0.2l-4.5 2.8c-0.6 0.4-0.8 1.1-0.5 1.6q0.1 0.2 0.2 0.3l12.4 9.9 13-8.1z"/><path class="b" d="m17.7 52.7l-6.7 9.3c-0.1 0.1-0.1 0.3 0 0.4q0.2 0.1 0.4 0l4.1-2.7q0 0 0.1 0l9.7-11.9z"/><path class="b" d="m105.7 0.8q-1.7-0.3-3.6-0.2c-1.1 1.7-1.9 3.6-2.2 5.4 0 0.4 0.3 0.7 0.7 0.6q0.2 0 0.4-0.1l7.6-4.8q-1.4-0.7-2.9-0.9z"/><path class="a" d="m89.1 9.7l5-3.2 4.6 7.9-5 3.1z"/><path class="d" d="m86 12.8c-0.6 0.4-0.8 1.1-0.5 1.6l0.5 0.9c0.3 0.5 1 0.5 1.6 0.2 0.6-0.4 0.8-1.1 0.5-1.6l-0.5-0.9c-0.3-0.5-1-0.6-1.6-0.2z"/><path class="d" d="m81.5 15.6c-0.6 0.3-0.8 1.1-0.5 1.6l0.5 0.8c0.3 0.5 1 0.6 1.6 0.2 0.6-0.4 0.8-1 0.6-1.5l-0.5-0.9c-0.3-0.5-1.1-0.6-1.7-0.2z"/><path class="d" d="m77.1 18.3c-0.6 0.4-0.9 1.1-0.6 1.7l0.5 0.8c0.3 0.5 1.1 0.6 1.7 0.2 0.5-0.4 0.8-1.1 0.5-1.6l-0.5-0.8c-0.3-0.5-1-0.7-1.6-0.3z"/><path class="d" d="m72.6 21.1c-0.6 0.4-0.8 1.1-0.5 1.6l0.5 0.9c0.3 0.5 1 0.6 1.6 0.2 0.6-0.4 0.8-1.1 0.5-1.6l-0.5-0.8c-0.3-0.6-1-0.7-1.6-0.3z"/><path class="d" d="m68.1 23.9c-0.6 0.4-0.8 1.1-0.5 1.6l0.5 0.8c0.3 0.6 1 0.7 1.6 0.3 0.6-0.4 0.9-1.1 0.6-1.6l-0.5-0.9c-0.3-0.5-1.1-0.6-1.7-0.2q0 0 0 0z"/><path class="d" d="m63.7 26.6c-0.6 0.4-0.9 1.2-0.6 1.7l0.5 0.8c0.3 0.5 1.1 0.6 1.7 0.3 0.6-0.4 0.8-1.1 0.5-1.7l-0.5-0.8c-0.3-0.5-1-0.6-1.6-0.3q0 0 0 0z"/><path class="d" d="m59.2 29.4c-0.6 0.4-0.8 1.1-0.5 1.6l0.5 0.9c0.3 0.5 1 0.6 1.6 0.2 0.6-0.3 0.8-1.1 0.5-1.6l-0.5-0.8c-0.3-0.5-1-0.7-1.6-0.3z"/><path class="d" d="m54.7 32.2c-0.6 0.4-0.8 1.1-0.5 1.6l0.5 0.9c0.3 0.5 1 0.6 1.6 0.2 0.6-0.4 0.9-1.1 0.6-1.6l-0.5-0.9c-0.3-0.5-1.1-0.6-1.7-0.2z"/><path class="d" d="m50.3 35c-0.6 0.3-0.9 1.1-0.6 1.6l0.5 0.8c0.3 0.6 1.1 0.7 1.7 0.3 0.6-0.4 0.8-1.1 0.5-1.6l-0.5-0.9c-0.3-0.5-1-0.6-1.6-0.2z"/><path class="d" d="m45.8 37.7c-0.6 0.4-0.8 1.1-0.5 1.7l0.5 0.8c0.3 0.5 1 0.6 1.6 0.3 0.6-0.4 0.8-1.1 0.5-1.7l-0.5-0.8c-0.3-0.5-1-0.6-1.6-0.3z"/><path class="d" d="m41.3 40.5c-0.6 0.4-0.8 1.1-0.5 1.6l0.5 0.9c0.3 0.5 1 0.6 1.6 0.2 0.6-0.3 0.9-1.1 0.6-1.6l-0.5-0.8c-0.3-0.6-1.1-0.7-1.7-0.3z"/></svg>