<svg width="148" height="33" viewBox="0 0 148 33" fill="none" xmlns="http://www.w3.org/2000/svg">
<path d="M18.04 1.98006V24.0241C18.04 26.7521 17.204 28.9081 15.532 30.4921C13.8894 32.0761 11.7187 32.8681 9.02003 32.8681C6.32136 32.8681 4.13603 32.0761 2.46403 30.4921C0.821359 28.9081 2.60323e-05 26.7521 2.60323e-05 24.0241H5.06003C5.08936 25.3734 5.42669 26.4441 6.07203 27.2361C6.74669 28.0281 7.72936 28.4241 9.02003 28.4241C10.3107 28.4241 11.2934 28.0281 11.968 27.2361C12.6427 26.4147 12.98 25.3441 12.98 24.0241V1.98006H18.04ZM24.528 20.3281C24.528 17.8934 25.0266 15.7374 26.024 13.8601C27.0506 11.9827 28.4293 10.5307 30.16 9.50406C31.92 8.44806 33.856 7.92006 35.968 7.92006C37.8746 7.92006 39.532 8.30139 40.94 9.06406C42.3773 9.79739 43.5213 10.7214 44.372 11.8361V8.31606H49.432V32.5601H44.372V28.9521C43.5213 30.0961 42.3626 31.0494 40.896 31.8121C39.4293 32.5747 37.7573 32.9561 35.88 32.9561C33.7973 32.9561 31.8906 32.4281 30.16 31.3721C28.4293 30.2867 27.0506 28.7907 26.024 26.8841C25.0266 24.9481 24.528 22.7627 24.528 20.3281ZM44.372 20.4161C44.372 18.7441 44.02 17.2921 43.316 16.0601C42.6413 14.8281 41.7466 13.8894 40.632 13.2441C39.5173 12.5987 38.3146 12.2761 37.024 12.2761C35.7333 12.2761 34.5306 12.5987 33.416 13.2441C32.3013 13.8601 31.392 14.7841 30.688 16.0161C30.0133 17.2187 29.676 18.6561 29.676 20.3281C29.676 22.0001 30.0133 23.4667 30.688 24.7281C31.392 25.9894 32.3013 26.9574 33.416 27.6321C34.56 28.2774 35.7626 28.6001 37.024 28.6001C38.3146 28.6001 39.5173 28.2774 40.632 27.6321C41.7466 26.9867 42.6413 26.0481 43.316 24.8161C44.02 23.5547 44.372 22.0881 44.372 20.4161ZM54.3483 20.3281C54.3483 17.8934 54.8469 15.7374 55.8443 13.8601C56.8709 11.9827 58.2496 10.5307 59.9803 9.50406C61.7403 8.44806 63.6909 7.92006 65.8323 7.92006C67.4163 7.92006 68.9709 8.27206 70.4963 8.97606C72.0509 9.65072 73.2829 10.5601 74.1923 11.7041V5.81741e-05H79.2523V32.5601H74.1923V28.9081C73.3709 30.0814 72.2269 31.0494 70.7603 31.8121C69.3229 32.5747 67.6656 32.9561 65.7883 32.9561C63.6763 32.9561 61.7403 32.4281 59.9803 31.3721C58.2496 30.2867 56.8709 28.7907 55.8443 26.8841C54.8469 24.9481 54.3483 22.7627 54.3483 20.3281ZM74.1923 20.4161C74.1923 18.7441 73.8403 17.2921 73.1363 16.0601C72.4616 14.8281 71.5669 13.8894 70.4523 13.2441C69.3376 12.5987 68.1349 12.2761 66.8443 12.2761C65.5536 12.2761 64.3509 12.5987 63.2363 13.2441C62.1216 13.8601 61.2123 14.7841 60.5083 16.0161C59.8336 17.2187 59.4963 18.6561 59.4963 20.3281C59.4963 22.0001 59.8336 23.4667 60.5083 24.7281C61.2123 25.9894 62.1216 26.9574 63.2363 27.6321C64.3803 28.2774 65.5829 28.6001 66.8443 28.6001C68.1349 28.6001 69.3376 28.2774 70.4523 27.6321C71.5669 26.9867 72.4616 26.0481 73.1363 24.8161C73.8403 23.5547 74.1923 22.0881 74.1923 20.4161ZM96.3566 32.9561C94.0686 32.9561 92.0006 32.4427 90.1526 31.4161C88.3046 30.3601 86.8526 28.8934 85.7966 27.0161C84.7406 25.1094 84.2126 22.9094 84.2126 20.4161C84.2126 17.9521 84.7553 15.7667 85.8406 13.8601C86.9259 11.9534 88.4073 10.4867 90.2846 9.46006C92.1619 8.43339 94.2593 7.92006 96.5766 7.92006C98.8939 7.92006 100.991 8.43339 102.869 9.46006C104.746 10.4867 106.227 11.9534 107.313 13.8601C108.398 15.7667 108.941 17.9521 108.941 20.4161C108.941 22.8801 108.383 25.0654 107.269 26.9721C106.154 28.8787 104.629 30.3601 102.693 31.4161C100.786 32.4427 98.6739 32.9561 96.3566 32.9561ZM96.3566 28.6001C97.6473 28.6001 98.8499 28.2921 99.9646 27.6761C101.109 27.0601 102.033 26.1361 102.737 24.9041C103.441 23.6721 103.793 22.1761 103.793 20.4161C103.793 18.6561 103.455 17.1747 102.781 15.9721C102.106 14.7401 101.211 13.8161 100.097 13.2001C98.9819 12.5841 97.7793 12.2761 96.4886 12.2761C95.1979 12.2761 93.9953 12.5841 92.8806 13.2001C91.7953 13.8161 90.9299 14.7401 90.2846 15.9721C89.6393 17.1747 89.3166 18.6561 89.3166 20.4161C89.3166 23.0267 89.9766 25.0507 91.2966 26.4881C92.6459 27.8961 94.3326 28.6001 96.3566 28.6001ZM124.415 32.9561C122.127 32.9561 120.059 32.4427 118.211 31.4161C116.363 30.3601 114.911 28.8934 113.855 27.0161C112.799 25.1094 112.271 22.9094 112.271 20.4161C112.271 17.9521 112.814 15.7667 113.899 13.8601C114.985 11.9534 116.466 10.4867 118.343 9.46006C120.221 8.43339 122.318 7.92006 124.635 7.92006C126.953 7.92006 129.05 8.43339 130.927 9.46006C132.805 10.4867 134.286 11.9534 135.371 13.8601C136.457 15.7667 136.999 17.9521 136.999 20.4161C136.999 22.8801 136.442 25.0654 135.327 26.9721C134.213 28.8787 132.687 30.3601 130.751 31.4161C128.845 32.4427 126.733 32.9561 124.415 32.9561ZM124.415 28.6001C125.706 28.6001 126.909 28.2921 128.023 27.6761C129.167 27.0601 130.091 26.1361 130.795 24.9041C131.499 23.6721 131.851 22.1761 131.851 20.4161C131.851 18.6561 131.514 17.1747 130.839 15.9721C130.165 14.7401 129.27 13.8161 128.155 13.2001C127.041 12.5841 125.838 12.2761 124.547 12.2761C123.257 12.2761 122.054 12.5841 120.939 13.2001C119.854 13.8161 118.989 14.7401 118.343 15.9721C117.698 17.1747 117.375 18.6561 117.375 20.4161C117.375 23.0267 118.035 25.0507 119.355 26.4881C120.705 27.8961 122.391 28.6001 124.415 28.6001ZM143.982 32.8681C143.072 32.8681 142.31 32.5601 141.694 31.9441C141.078 31.3281 140.77 30.5654 140.77 29.6561C140.77 28.7467 141.078 27.9841 141.694 27.3681C142.31 26.7521 143.072 26.4441 143.982 26.4441C144.862 26.4441 145.61 26.7521 146.226 27.3681C146.842 27.9841 147.15 28.7467 147.15 29.6561C147.15 30.5654 146.842 31.3281 146.226 31.9441C145.61 32.5601 144.862 32.8681 143.982 32.8681Z" fill="#181E4B"/>
</svg>
