<svg width="17" height="17" viewBox="0 0 17 17" fill="none" xmlns="http://www.w3.org/2000/svg">
<path d="M16.1936 0.885575L9.31857 15.8856C9.26104 16.0112 9.1635 16.1143 9.04118 16.1786C8.91887 16.2429 8.77869 16.2649 8.64257 16.241C8.50644 16.2172 8.38205 16.149 8.28885 16.0469C8.19565 15.9449 8.13889 15.8149 8.12745 15.6771L7.5462 8.7042L0.573258 8.12295C0.435541 8.11151 0.305499 8.05475 0.203469 7.96155C0.101439 7.86834 0.0331764 7.74395 0.00935597 7.60783C-0.0144645 7.47171 0.00750088 7.33153 0.0718169 7.20921C0.136133 7.0869 0.239172 6.98935 0.364821 6.93183L15.3648 0.0568246C15.4808 0.00368177 15.6102 -0.0127075 15.7358 0.00985765C15.8613 0.0324228 15.977 0.0928618 16.0671 0.183059C16.1573 0.273255 16.2178 0.388891 16.2404 0.514437C16.2629 0.639983 16.2465 0.769427 16.1934 0.885387L16.1936 0.885575Z" fill="#080809"/>
</svg>
